<svg id="visual" viewBox="0 0 900 300" width="900" height="300" xmlns="http://www.w3.org/2000/svg" xmlns:xlink="http://www.w3.org/1999/xlink" version="1.1"><rect x="0" y="0" width="900" height="300" fill="#98DFEA"></rect><path d="M0 144L21.5 128.8C43 113.7 86 83.3 128.8 78.8C171.7 74.3 214.3 95.7 257.2 106.7C300 117.7 343 118.3 385.8 109C428.7 99.7 471.3 80.3 514.2 78C557 75.7 600 90.3 642.8 104C685.7 117.7 728.3 130.3 771.2 131.2C814 132 857 121 878.5 115.5L900 110L900 301L878.5 301C857 301 814 301 771.2 301C728.3 301 685.7 301 642.8 301C600 301 557 301 514.2 301C471.3 301 428.7 301 385.8 301C343 301 300 301 257.2 301C214.3 301 171.7 301 128.8 301C86 301 43 301 21.5 301L0 301Z" fill="#fbbb2c"></path><path d="M0 106L21.5 113C43 120 86 134 128.8 143.3C171.7 152.7 214.3 157.3 257.2 159.2C300 161 343 160 385.8 154.8C428.7 149.7 471.3 140.3 514.2 136.5C557 132.7 600 134.3 642.8 138.5C685.7 142.7 728.3 149.3 771.2 140.8C814 132.3 857 108.7 878.5 96.8L900 85L900 301L878.5 301C857 301 814 301 771.2 301C728.3 301 685.7 301 642.8 301C600 301 557 301 514.2 301C471.3 301 428.7 301 385.8 301C343 301 300 301 257.2 301C214.3 301 171.7 301 128.8 301C86 301 43 301 21.5 301L0 301Z" fill="#f6a12f"></path><path d="M0 155L21.5 157.2C43 159.3 86 163.7 128.8 158.7C171.7 153.7 214.3 139.3 257.2 137.7C300 136 343 147 385.8 149C428.7 151 471.3 144 514.2 148.7C557 153.3 600 169.7 642.8 175C685.7 180.3 728.3 174.7 771.2 171C814 167.3 857 165.7 878.5 164.8L900 164L900 301L878.5 301C857 301 814 301 771.2 301C728.3 301 685.7 301 642.8 301C600 301 557 301 514.2 301C471.3 301 428.7 301 385.8 301C343 301 300 301 257.2 301C214.3 301 171.7 301 128.8 301C86 301 43 301 21.5 301L0 301Z" fill="#ed8835"></path><path d="M0 196L21.5 195.3C43 194.7 86 193.3 128.8 196C171.7 198.7 214.3 205.3 257.2 204.8C300 204.3 343 196.7 385.8 194.7C428.7 192.7 471.3 196.3 514.2 193C557 189.7 600 179.3 642.8 173.7C685.7 168 728.3 167 771.2 173.8C814 180.7 857 195.3 878.5 202.7L900 210L900 301L878.5 301C857 301 814 301 771.2 301C728.3 301 685.7 301 642.8 301C600 301 557 301 514.2 301C471.3 301 428.7 301 385.8 301C343 301 300 301 257.2 301C214.3 301 171.7 301 128.8 301C86 301 43 301 21.5 301L0 301Z" fill="#e0703b"></path><path d="M0 238L21.5 233.8C43 229.7 86 221.3 128.8 219.3C171.7 217.3 214.3 221.7 257.2 221C300 220.3 343 214.7 385.8 217.3C428.7 220 471.3 231 514.2 232.2C557 233.3 600 224.7 642.8 223.5C685.7 222.3 728.3 228.7 771.2 227.8C814 227 857 219 878.5 215L900 211L900 301L878.5 301C857 301 814 301 771.2 301C728.3 301 685.7 301 642.8 301C600 301 557 301 514.2 301C471.3 301 428.7 301 385.8 301C343 301 300 301 257.2 301C214.3 301 171.7 301 128.8 301C86 301 43 301 21.5 301L0 301Z" fill="#d05b40"></path><path d="M0 277L21.5 270.5C43 264 86 251 128.8 248.5C171.7 246 214.3 254 257.2 258C300 262 343 262 385.8 260.8C428.7 259.7 471.3 257.3 514.2 259.3C557 261.3 600 267.7 642.8 270.8C685.7 274 728.3 274 771.2 272C814 270 857 266 878.5 264L900 262L900 301L878.5 301C857 301 814 301 771.2 301C728.3 301 685.7 301 642.8 301C600 301 557 301 514.2 301C471.3 301 428.7 301 385.8 301C343 301 300 301 257.2 301C214.3 301 171.7 301 128.8 301C86 301 43 301 21.5 301L0 301Z" fill="#bd4743"></path></svg>